<?xml version="1.0" encoding="UTF-8" standalone="no"?>
<!DOCTYPE svg PUBLIC "-//W3C//DTD SVG 1.1//EN" "http://www.w3.org/Graphics/SVG/1.1/DTD/svg11.dtd">
<!-- Generated by graphviz version 2.38.0 (20140413.2041)
 -->
<!-- Title: %3 Pages: 1 -->
<svg width="260pt" height="116pt" viewBox="0.00 0.00 260.30 116.00" xmlns="http://www.w3.org/2000/svg" xmlns:xlink="http://www.w3.org/1999/xlink">
<g id="graph0" class="graph" transform="scale(1 1) rotate(0) translate(4 112)">
<title>%3</title>
<polygon fill="white" stroke="none" points="-4,4 -4,-112 256.295,-112 256.295,4 -4,4"/>
<!-- A -->
<g id="node1" class="node"><title>A</title>
<ellipse fill="none" stroke="black" cx="109.42" cy="-90" rx="27" ry="18"/>
<text text-anchor="middle" x="109.42" y="-85.8" font-family="Times,serif" font-size="14.00">여혐</text>
</g>
<!-- B -->
<g id="node2" class="node"><title>B</title>
<ellipse fill="none" stroke="black" cx="42.4196" cy="-18" rx="42.3394" ry="18"/>
<text text-anchor="middle" x="42.4196" y="-13.8" font-family="Times,serif" font-size="14.00">여성혐오</text>
</g>
<!-- A&#45;&gt;B -->
<g id="edge1" class="edge"><title>A-&gt;B</title>
<path fill="none" stroke="black" d="M95.5372,-74.496C86.6543,-65.2153 74.9302,-52.9662 64.7568,-42.3373"/>
<polygon fill="black" stroke="black" points="67.1289,-39.7539 57.6858,-34.9498 62.072,-44.5941 67.1289,-39.7539"/>
</g>
<!-- C -->
<g id="node3" class="node"><title>C</title>
<ellipse fill="none" stroke="black" cx="177.42" cy="-18" rx="74.7515" ry="18"/>
<text text-anchor="middle" x="177.42" y="-13.8" font-family="Times,serif" font-size="14.00">과학계 여혐</text>
</g>
<!-- A&#45;&gt;C -->
<g id="edge2" class="edge"><title>A-&gt;C</title>
<path fill="none" stroke="black" d="M123.509,-74.496C132.337,-65.4087 143.929,-53.4753 154.102,-43.0037"/>
<polygon fill="black" stroke="black" points="156.741,-45.3102 161.198,-35.6986 151.72,-40.4327 156.741,-45.3102"/>
</g>
</g>
</svg>